<svg height="24" viewBox="0 0 24 24" width="24" xmlns="http://www.w3.org/2000/svg"><g fill="none" fill-rule="evenodd"><path d="m0 0h24v24h-24z" fill-rule="nonzero"/><path d="m11.2978 2.19533c.3961125-.1485575.8276734-.16712719 1.232648-.05570906l.171752.05570906 7 2.625c.7286533.27321467 1.2276818.94148693 1.2909804 1.70719646l.0068196.16546354v5.36271c0 3.3087353-1.814372 6.341735-4.7089968 7.9112788l-.2661032.1386212-3.3541 1.677c-.3753778.1877333-.8097778.2085926-1.1982716.0625778l-.1433284-.0625778-3.35412-1.677c-2.95938176-1.4797588-4.86081322-4.4589651-4.97010211-7.7498985l-.00497789-.3000015v-5.36271c0-.77810133.45049511-1.48004142 1.14521784-1.80817554l.15253216-.06448446zm4.1351 6.43377-4.5981 4.5981-1.76773-1.7678c-.39053-.3905-1.02369-.3905-1.41422 0-.39052.3905-.39052 1.0237 0 1.4142l2.40415 2.4042c.4296.4296 1.1261.4296 1.5557 0l5.2344-5.2345c.3906-.39052.3906-1.02368 0-1.4142-.3905-.39053-1.0236-.39053-1.4142 0z" fill="#09244b"/></g></svg>